<svg xmlns="http://www.w3.org/2000/svg" id="Layer_1" viewBox="0 0 104 104">
    <defs>
        <style>
            .cls-1 {
                fill: none;
            }

            .cls-2 {
                fill: #2e3440;
            }

            .cls-3 {
                fill: #181818;
            }


            .cls-1,
            .cls-2 {
                stroke: #2e3440;
                stroke-linecap: round;
                stroke-linejoin: round;
                stroke-width: 2px;
            }
        </style>
    </defs>
    <g>
        <path class="cls-1"
            d="M45.652,57.329h-12.057c-5.276,0-8.575-5.706-5.932-10.273l4.33-7.511,3.062-5.308,7.404-12.819c2.643-4.567,9.23-4.567,11.863,0l.172,.301" />
        <path class="cls-1" d="M60.9,32.807l.827,1.429,7.404,12.819c2.633,4.567-.655,10.273-5.932,10.273h-12.067" />
    </g>
    <g>
        <path class="cls-3"
            d="M50.801,60.871h-4.813l-1.725-18.425c-.228-2.434,1.687-4.536,4.131-4.536h0c2.444,0,4.359,2.102,4.131,4.536l-1.725,18.425Z" />
        <circle class="cls-3" cx="48.395" cy="70.085" r="4.556" />
    </g>
    <circle class="cls-1" cx="59.16" cy="26.424" r="6.634" />
    <line class="cls-1" x1="21.62" y1="37.245" x2="34.514" y2="40.104" />
    <line class="cls-1" x1="25.549" y1="29.391" x2="36.81" y2="36.607" />
    <line class="cls-1" x1="30.842" y1="23.373" x2="39.299" y2="32.571" />
    <circle class="cls-3" cx="64.565" cy="21.628" r="3.639" />
    <path class="cls-1"
        d="M65.795,40.104s7.669-3.087,7.133-11.242c-.146-2.227,2.476-4.076,3.791-.89,1.572,3.809-1.318,8.531-1.318,8.531" />
    <path class="cls-1"
        d="M76.708,33.477s2.349-9.293,4.676-9.954c3.567-1.013,2.515,5.552,.845,9.534-1.317,3.14-2.318,4.264-2.318,4.264" />
    <path class="cls-1"
        d="M82.419,32.709s2.223-6.483,4.794-5.793c1.791,.48,1.625,4.599-.041,8.598-1.666,4-5.087,10.255-12.895,11.619" />
    <g>
        <g>
            <g>
                <path class="cls-1"
                    d="M39.392,75.968l-3.655,10.043-16.422-5.977c-1.81-.659-2.399-2.933-1.117-4.385l.666-.752,1.297-1.467c1.797-2.039,4.663-2.764,7.218-1.834l12.013,4.372Z" />
                <line class="cls-1" x1="40.472" y1="57.329" x2="34.355" y2="74.134" />
            </g>
            <path class="cls-3"
                d="M37.335,81.62l-1.598,4.392-16.422-5.977c-1.81-.659-2.399-2.933-1.117-4.385l.666-.752,18.472,6.723Z" />
        </g>
        <g>
            <g>
                <path class="cls-1"
                    d="M57.398,75.968l3.655,10.043,16.422-5.977c1.81-.659,2.399-2.933,1.117-4.385l-.666-.752-1.297-1.467c-1.797-2.039-4.663-2.764-7.218-1.834l-12.013,4.372Z" />
                <line class="cls-1" x1="62.434" y1="74.134" x2="56.318" y2="57.329" />
            </g>
            <path  class="cls-3"
                d="M59.454,81.62l1.598,4.392,16.422-5.977c1.81-.659,2.399-2.933,1.117-4.385l-.666-.752-18.472,6.723Z" />
        </g>
    </g>
</svg>